<?xml version="1.0" standalone="no"?>
<!DOCTYPE svg PUBLIC "-//W3C//DTD SVG 1.1//EN" "http://www.w3.org/Graphics/SVG/1.1/DTD/svg11.dtd" >
<svg xmlns="http://www.w3.org/2000/svg">
<metadata>Generated by IcoMoon</metadata>
<defs>
<font id="core-icons" horiz-adv-x="1024">
<font-face units-per-em="1024" ascent="960" descent="-64" />
<missing-glyph horiz-adv-x="1024" />
<glyph unicode="&#x20;" horiz-adv-x="512" d="" />
<glyph unicode="&#xe094;" glyph-name="arrow-left" d="M426.667 768q17.667 0 30.167-12.5t12.5-30.167q0-18-12.667-30.333l-225.667-225.667h665q17.667 0 30.167-12.5t12.5-30.167-12.5-30.167-30.167-12.5h-665l225.667-225.667q12.667-12.333 12.667-30.333 0-17.667-12.5-30.167t-30.167-12.5q-18 0-30.333 12.333l-298.667 298.667q-12.333 13-12.333 30.333t12.333 30.333l298.667 298.667q12.667 12.333 30.333 12.333z" />
<glyph unicode="&#xe095;" glyph-name="arrow-right" d="M597.333 768q18 0 30.333-12.333l298.667-298.667q12.333-12.333 12.333-30.333t-12.333-30.333l-298.667-298.667q-12.333-12.333-30.333-12.333-18.333 0-30.5 12.167t-12.167 30.5q0 18 12.333 30.333l226 225.667h-665q-17.667 0-30.167 12.5t-12.5 30.167 12.5 30.167 30.167 12.5h665l-226 225.667q-12.333 12.333-12.333 30.333 0 18.333 12.167 30.5t30.5 12.167z" />
<glyph unicode="&#xe096;" glyph-name="arrow-up" d="M512 853.334q18 0 30.333-12.333l298.667-298.667q12.333-12.333 12.333-30.333 0-18.333-12.167-30.5t-30.5-12.167q-18 0-30.333 12.333l-225.667 226v-665q0-17.667-12.5-30.167t-30.167-12.5-30.167 12.5-12.5 30.167v665l-225.667-226q-12.333-12.333-30.333-12.333-18.333 0-30.5 12.167t-12.167 30.5q0 18 12.333 30.333l298.667 298.667q12.333 12.333 30.333 12.333z" />
<glyph unicode="&#xe097;" glyph-name="arrow-down" d="M512 853.334q17.667 0 30.167-12.5t12.5-30.167v-665l225.667 226q12.333 12.333 30.333 12.333 18.333 0 30.5-12.167t12.167-30.5q0-18-12.333-30.333l-298.667-298.667q-12.333-12.333-30.333-12.333t-30.333 12.333l-298.667 298.667q-12.333 12.333-12.333 30.333 0 18.333 12.167 30.5t30.5 12.167q18 0 30.333-12.333l225.667-226v665q0 17.667 12.5 30.167t30.167 12.5z" />
<glyph unicode="&#xe117;" glyph-name="cross" d="M810.667 768q18.333 0 30.5-12.167t12.167-30.5q0-18-12.333-30.333l-268.667-268.333 268.667-268.333q12.333-12.333 12.333-30.333 0-18.333-12.167-30.5t-30.5-12.167q-18 0-30.333 12.333l-268.333 268.667-268.333-268.667q-12.333-12.333-30.333-12.333-18.333 0-30.5 12.167t-12.167 30.5q0 18 12.333 30.333l268.667 268.333-268.667 268.333q-12.333 12.333-12.333 30.333 0 18.333 12.167 30.5t30.5 12.167q18 0 30.333-12.333l268.333-268.667 268.333 268.667q12.333 12.333 30.333 12.333z" />
<glyph unicode="&#xe900;" glyph-name="chevron-right" d="M469.146 719.638c21.402-20.89 230.502-240.384 230.502-240.384 11.418-11.213 17.152-25.805 17.152-40.397s-5.734-29.184-17.152-40.294c0 0-209.101-219.597-230.502-240.384-21.402-20.89-59.904-22.323-82.688 0-22.835 22.221-24.627 53.299 0 80.589l191.846 200.090-191.846 200.090c-24.627 27.29-22.835 58.419 0 80.691 22.784 22.323 61.286 20.941 82.688 0z" />
<glyph unicode="&#xe901;" glyph-name="arrow-right-decor" horiz-adv-x="1952" d="M1335.652 386.915h-964.638c-12.294 0-22.261 9.967-22.261 22.261s9.967 22.261 22.261 22.261h964.638c12.294 0 22.261-9.967 22.261-22.261s-9.967-22.261-22.261-22.261zM1268.87 294.161c-12.286 0.011-22.241 9.973-22.241 22.261 0 6.142 2.488 11.704 6.51 15.731l74.203 74.203-74.203 74.203c-3.702 3.965-5.975 9.305-5.975 15.176 0 12.294 9.967 22.261 22.261 22.261 5.871 0 11.211-2.273 15.189-5.987l89.624-90.145c4.023-4.027 6.51-9.589 6.51-15.731s-2.488-11.704-6.51-15.731l-89.637-89.711c-4.025-4.030-9.586-6.524-15.73-6.53zM1369.786 228.789c-12.286 0.011-22.241 9.973-22.241 22.261 0 6.142 2.488 11.704 6.51 15.731l139.279 139.279-139.353 139.353c-3.702 3.965-5.975 9.305-5.975 15.176 0 12.294 9.967 22.261 22.261 22.261 5.871 0 11.211-2.273 15.189-5.987l154.997-154.998c4.023-4.027 6.51-9.589 6.51-15.731s-2.488-11.704-6.51-15.731l-154.935-155.084c-4.025-4.030-9.586-6.524-15.73-6.53z" />
<glyph unicode="&#xe902;" glyph-name="chevron-left" d="M637.542 719.638c22.835-22.323 24.627-53.402 0-80.691l-191.846-200.090 191.846-200.090c24.627-27.29 22.835-58.419 0-80.589-22.784-22.323-61.286-20.89-82.688 0-21.402 20.787-230.502 240.384-230.502 240.384-11.418 11.11-17.152 25.702-17.152 40.294s5.734 29.184 17.152 40.397c0 0 209.101 219.494 230.502 240.384 21.402 20.941 59.904 22.323 82.688 0z" />
<glyph unicode="&#xe903;" glyph-name="arrow-left-decor" horiz-adv-x="1810" d="M501.133 407.253h998.425c12.725 0 23.041-10.316 23.041-23.041s-10.316-23.041-23.041-23.041h-998.425c-12.725 0-23.041 10.316-23.041 23.041s10.316 23.041 23.041 23.041zM570.254 503.255c12.716-0.012 23.020-10.323 23.020-23.041 0-6.357-2.575-12.114-6.739-16.282l-76.802-76.802 76.802-76.802c4.517-4.218 7.333-10.208 7.333-16.857 0-12.725-10.316-23.041-23.041-23.041-6.648 0-12.639 2.816-16.844 7.32l-93.173 93.328c-4.163 4.169-6.738 9.925-6.738 16.282s2.575 12.114 6.739 16.282l93.16 92.853c4.166 4.171 9.922 6.753 16.281 6.759zM465.88 570.918c12.716-0.012 23.020-10.323 23.020-23.041 0-6.357-2.575-12.114-6.739-16.282l-144.234-144.234 144.234-144.157c3.831-4.103 6.184-9.631 6.184-15.707 0-12.725-10.316-23.041-23.041-23.041-6.077 0-11.604 2.352-15.721 6.196l-160.503 160.427c-4.163 4.169-6.738 9.925-6.738 16.282s2.575 12.114 6.739 16.282l160.439 160.516c4.171 4.176 9.935 6.759 16.302 6.759 0.020 0 0.040 0 0.060 0z" />
<glyph unicode="&#xe904;" glyph-name="calendar" horiz-adv-x="920" d="M491.876 493.424h-73.143c-17.184-1.893-30.431-16.331-30.431-33.862s13.247-31.969 30.278-33.849l73.296-0.014c17.184 1.893 30.431 16.331 30.431 33.862s-13.247 31.969-30.278 33.849zM737.234 493.424h-73.143c-17.184-1.893-30.431-16.331-30.431-33.862s13.247-31.969 30.278-33.849l73.296-0.014c17.184 1.893 30.431 16.331 30.431 33.862s-13.247 31.969-30.278 33.849zM418.733 93.267h73.143c18.702 0 33.862 15.161 33.862 33.862s-15.161 33.862-33.862 33.862h-73.143c-17.184-1.893-30.431-16.331-30.431-33.862s13.247-31.969 30.278-33.849zM664.091 93.267h73.143c18.702 0 33.862 15.161 33.862 33.862s-15.161 33.862-33.862 33.862h-73.143c-18.702 0-33.862-15.161-33.862-33.862s15.161-33.862 33.862-33.862zM737.234 327.014h-73.143c-17.184-1.893-30.431-16.331-30.431-33.862s13.247-31.969 30.278-33.849l73.296-0.014c17.184 1.893 30.431 16.331 30.431 33.862s-13.247 31.969-30.278 33.849zM491.876 327.014h-73.143c-17.184-1.893-30.431-16.331-30.431-33.862s13.247-31.969 30.278-33.849l73.296-0.014c17.184 1.893 30.431 16.331 30.431 33.862s-13.247 31.969-30.278 33.849zM182.277 93.267h73.143c17.184 1.893 30.431 16.331 30.431 33.862s-13.247 31.969-30.278 33.849l-73.296 0.014c-17.184-1.893-30.431-16.331-30.431-33.862s13.247-31.969 30.278-33.849zM255.42 493.424h-73.143c-17.184-1.893-30.431-16.331-30.431-33.862s13.247-31.969 30.278-33.849l73.296-0.014c17.184 1.893 30.431 16.331 30.431 33.862s-13.247 31.969-30.278 33.849zM255.42 327.014h-73.143c-17.184-1.893-30.431-16.331-30.431-33.862s13.247-31.969 30.278-33.849l73.296-0.014c17.184 1.893 30.431 16.331 30.431 33.862s-13.247 31.969-30.278 33.849zM182.277 950.857c-18.641-0.219-33.669-15.381-33.669-34.054 0-0.001 0-0.002 0-0.002v-71.595h-116.1c-18.641-0.219-33.669-15.381-33.669-34.054 0-0.001 0-0.002 0-0.002v-851.398c0-18.809 15.247-34.056 34.056-34.056h851.398c0.001 0 0.001 0 0.002 0 18.673 0 33.835 15.028 34.054 33.648v851.419c-0.216 18.507-15.162 33.453-33.648 33.669h-116.12v72.369c-1.893 17.184-16.331 30.431-33.862 30.431s-31.969-13.247-33.849-30.278l-0.014-71.748h-207.045v71.595c-1.893 17.184-16.331 30.431-33.862 30.431s-31.969-13.247-33.849-30.278l-0.014-71.748h-210.141v71.595c-0.216 18.507-15.162 33.453-33.648 33.669zM851.785-6.192h-784.060v597.914h784.060zM426.086 777.868v-29.025c1.893-17.184 16.331-30.431 33.862-30.431s31.969 13.247 33.849 30.278l0.014 29.178h209.754v-29.025c1.893-17.184 16.331-30.431 33.862-30.431s31.969 13.247 33.849 30.278l0.014 29.178h80.883v-118.422h-784.447v119.196h80.883v-29.025c-0.123-1.088-0.193-2.348-0.193-3.625 0-18.809 15.247-34.056 34.056-34.056s34.056 15.247 34.056 34.056c0 1.277-0.070 2.538-0.207 3.778l0.014 28.872z" />
<glyph unicode="&#xe905;" glyph-name="email" horiz-adv-x="960" d="M624.033 620.136c-20.523 6.976-44.162 11.003-68.743 11.003-2.097 0-4.188-0.029-6.271-0.088-127.7 0.007-234.518-122.648-234.518-266.656 0-63.949 32.002-112.006 96.005-112.006 85.356 0 165.306 106.654 181.307 197.307zM704.038-14.491c-79.95-42.651-165.306-58.652-261.311-58.652-240.013 0-442.672 176.009-442.672 458.728 0 304.016 208.011 565.327 533.325 565.327 256.014 0 426.671-181.307 426.671-426.671 0-218.442-122.655-346.667-261.311-346.667-58.652 0-112.006 37.354-106.654 128.007h-5.461c-53.354-85.356-117.358-128.007-208.011-128.007-85.356 0-160.009 69.301-160.009 186.658 0 181.361 144.008 346.722 346.722 346.722 64.003 0 117.303-10.922 154.657-32.002l-48.003-266.663c-21.353-112.006-5.461-165.36 42.651-165.36 74.652 0 160.009 96.005 160.009 266.663 0 213.363-128.007 368.020-357.371 368.020-240.013 0-442.672-192.010-442.672-485.323 0-245.365 160.009-394.67 378.669-394.67 85.356 0 160.009 16.001 223.903 53.3z" />
<glyph unicode="&#xe906;" glyph-name="checkmark" d="M512 950.857c-282.438 0-511.398-228.961-511.398-511.398s228.961-511.398 511.398-511.398c282.438 0 511.398 228.961 511.398 511.398-0.683 282.162-229.235 510.715-511.332 511.398zM512-1.998c-243.478 0-440.855 197.378-440.855 440.855s197.378 440.855 440.855 440.855c243.478 0 440.855-197.378 440.855-440.855-0.342-243.31-197.534-440.449-440.831-440.705zM251.488 427.275l202.754-203.958 318.27 319.474-69.941 69.941-248.329-247.126-132.813 131.61-69.941-69.941z" />
<glyph unicode="&#xe907;" glyph-name="lock" horiz-adv-x="760" d="M703.67 7.743c0.016-0.327 0.025-0.711 0.025-1.096 0-13.157-10.666-23.823-23.823-23.823-0.386 0-0.769 0.009-1.15 0.027l-597.91-0.002c-0.327-0.016-0.711-0.025-1.096-0.025-13.157 0-23.823 10.666-23.823 23.823 0 0.386 0.009 0.769 0.027 1.15l-0.002 454.236c-0.011 0.268-0.017 0.583-0.017 0.899 0 13.32 10.798 24.118 24.118 24.118 0.279 0 0.556-0.005 0.833-0.014l597.924 0.001c0.236 0.008 0.514 0.013 0.792 0.013 13.32 0 24.118-10.798 24.118-24.118 0-0.316-0.006-0.631-0.018-0.945zM228.844 835.549c39.704 40.147 87.312 59.095 149.879 59.316h2.105c62.566-0.332 110.175-19.169 149.879-59.316 65.964-66.482 67.479-167.016 67.479-178.281v-116.49h-436.82v116.453c0 11.265 1.551 111.726 67.479 178.318zM678.776 540.777h-26.962v116.343c0 22.161-3.693 136.029-82.991 216.25-49.566 50.12-110.803 74.755-187.293 75.235h-3.546c-76.417-0.48-137.728-25.115-187.293-75.235-79.445-80.221-83.102-194.2-82.991-216.25v-116.343h-26.962c-0.221 0.002-0.483 0.004-0.745 0.004-42.959 0-77.783-34.825-77.783-77.783 0-0.339 0.002-0.677 0.006-1.015l-0.001-454.239c-0.004-0.298-0.006-0.651-0.006-1.003 0-42.836 34.726-77.562 77.562-77.562 0.34 0 0.679 0.002 1.018 0.007l597.987-0.001c0.287-0.004 0.627-0.006 0.967-0.006 42.836 0 77.562 34.726 77.562 77.562 0 0.353-0.002 0.705-0.007 1.057l0.001 454.237c0.004 0.287 0.006 0.625 0.006 0.964 0 42.959-34.825 77.783-77.783 77.783-0.262 0-0.523-0.001-0.785-0.004z" />
<glyph unicode="&#xe908;" glyph-name="search" d="M415.881 839.173c165.439 0 299.554-134.115 299.554-299.554s-134.115-299.554-299.554-299.554c-165.439 0-299.554 134.115-299.554 299.554 0 0.048 0 0.096 0 0.144 0.542 165.186 134.35 298.946 299.509 299.41zM1006.66 22.43l-267.742 269.107 16.521 22.528c3.004 3.959 5.871 7.919 8.738 12.015v0c104.858 150.187 81.92 363.861-56.934 502.443-74.154 74.188-176.614 120.076-289.792 120.076-226.288 0-409.731-183.443-409.731-409.731 0-113.11 45.833-215.516 119.941-289.657 73.656-74.049 175.622-119.876 288.292-119.876 0.407 0 0.814 0.001 1.22 0.002h-0.063c69.127 0.036 134.271 17.050 191.501 47.096 13.659 7.768 27.271 16.806 40.121 26.779l271.23-265.704c5.965-5.855 14.062-9.555 23.022-9.829 8.693 0.148 16.458 3.78 22.025 9.547l13.662 13.662c10.377 9.967 21.299 20.48 29.082 28.262 5.192 5.489 8.384 12.917 8.384 21.091 0 8.718-3.632 16.589-9.465 22.18z" />
<glyph unicode="&#xe909;" glyph-name="line-decor" horiz-adv-x="3486" d="M1765.802 412.184c0-27.407-22.218-49.624-49.624-49.624s-49.624 22.218-49.624 49.624c0 27.407 22.218 49.624 49.624 49.624s49.624-22.218 49.624-49.624zM172.652 412.184c0-13.315-10.794-24.109-24.109-24.109s-24.109 10.794-24.109 24.109c0 13.315 10.794 24.109 24.109 24.109s24.109-10.794 24.109-24.109zM777.449 400.439h-537.598c-6.852 0-12.406 5.554-12.406 12.406s5.554 12.406 12.406 12.406h537.598c6.852 0 12.406-5.554 12.406-12.406s-5.554-12.406-12.406-12.406zM1509.41 400.439h-537.598c-6.852 0-12.406 5.554-12.406 12.406s5.554 12.406 12.406 12.406h537.598c6.852 0 12.406-5.554 12.406-12.406s-5.554-12.406-12.406-12.406zM281.205 348.789c-3.425 0.003-6.524 1.393-8.767 3.639l-49.955 49.955c-2.242 2.245-3.628 5.344-3.628 8.767s1.386 6.522 3.628 8.767l49.955 49.955c2.271 2.432 5.497 3.949 9.076 3.949 6.852 0 12.406-5.554 12.406-12.406 0-3.58-1.516-6.805-3.941-9.070l-41.361-41.36 41.354-41.354c2.053-2.207 3.314-5.177 3.314-8.44 0-6.737-5.37-12.22-12.064-12.401zM834.641 361.195c-6.847 0.006-12.395 5.558-12.395 12.406 0 3.423 1.386 6.522 3.628 8.767l28.947 28.947-28.948 28.948c-2.432 2.271-3.949 5.497-3.949 9.076 0 6.852 5.554 12.406 12.406 12.406 3.58 0 6.805-1.516 9.070-3.941l37.556-37.556c2.242-2.245 3.628-5.344 3.628-8.767s-1.386-6.522-3.628-8.767l-37.342-37.921c-2.242-2.225-5.33-3.6-8.739-3.6-0.083 0-0.165 0.001-0.247 0.002zM909.781 361.195c-3.425 0.003-6.524 1.393-8.767 3.639l-37.549 37.549c-2.242 2.245-3.628 5.344-3.628 8.767s1.386 6.522 3.628 8.767l37.549 37.549c2.209 2.063 5.186 3.33 8.458 3.33 6.852 0 12.406-5.554 12.406-12.406 0-3.272-1.267-6.248-3.336-8.465l-28.941-28.94 28.948-28.948c2.242-2.245 3.628-5.344 3.628-8.767 0-6.848-5.548-12.4-12.395-12.406zM1472.191 348.789c-6.847 0.006-12.395 5.558-12.395 12.406 0 3.423 1.386 6.522 3.628 8.767l41.354 41.354-41.354 41.354c-2.063 2.209-3.33 5.186-3.33 8.458 0 6.852 5.554 12.406 12.406 12.406 3.272 0 6.248-1.267 8.465-3.336l49.948-49.949c2.242-2.245 3.628-5.344 3.628-8.767s-1.386-6.522-3.628-8.767l-49.955-49.955c-2.199-2.368-5.298-3.874-8.75-3.97zM1528.432 312.356c-6.847 0.006-12.395 5.558-12.395 12.406 0 3.423 1.386 6.522 3.628 8.767l77.621 77.621-77.621 77.621c-2.063 2.209-3.33 5.186-3.33 8.458 0 6.852 5.554 12.406 12.406 12.406 3.272 0 6.248-1.267 8.465-3.336l86.381-86.381c2.242-2.245 3.628-5.344 3.628-8.767s-1.386-6.522-3.628-8.767l-86.388-86.388c-2.243-2.246-5.342-3.636-8.766-3.639zM3311.975 412.184c0-13.315-10.794-24.109-24.109-24.109s-24.109 10.794-24.109 24.109c0 13.315 10.794 24.109 24.109 24.109s24.109-10.794 24.109-24.109zM3196.64 400.439h-537.598c-6.852 0-12.406 5.554-12.406 12.406s5.554 12.406 12.406 12.406h537.598c6.852 0 12.406-5.554 12.406-12.406s-5.554-12.406-12.406-12.406zM2464.68 400.439h-537.598c-6.852 0-12.406 5.554-12.406 12.406s5.554 12.406 12.406 12.406h537.598c6.852 0 12.406-5.554 12.406-12.406s-5.554-12.406-12.406-12.406zM3155.286 348.789c-6.847 0.006-12.395 5.558-12.395 12.406 0 3.423 1.386 6.522 3.628 8.767l41.354 41.354-41.354 41.354c-2.432 2.271-3.949 5.497-3.949 9.076 0 6.852 5.554 12.406 12.406 12.406 3.58 0 6.805-1.516 9.070-3.941l49.962-49.962c2.242-2.245 3.628-5.344 3.628-8.767s-1.386-6.522-3.628-8.767l-50.038-50.327c-2.229-2.212-5.295-3.583-8.681-3.598zM2601.726 361.195c-3.425 0.003-6.524 1.393-8.767 3.639l-37.549 37.549c-2.242 2.245-3.628 5.344-3.628 8.767s1.386 6.522 3.628 8.767l37.549 37.549c2.271 2.432 5.497 3.949 9.076 3.949 6.852 0 12.406-5.554 12.406-12.406 0-3.58-1.516-6.805-3.941-9.070l-28.955-28.954 28.948-28.948c2.242-2.245 3.628-5.344 3.628-8.767 0-6.848-5.548-12.4-12.395-12.406zM2526.71 361.195c-6.847 0.006-12.395 5.558-12.395 12.406 0 3.423 1.386 6.522 3.628 8.767l28.947 28.947-28.948 28.948c-2.432 2.271-3.949 5.497-3.949 9.076 0 6.852 5.554 12.406 12.406 12.406 3.58 0 6.805-1.516 9.070-3.941l37.556-37.556c2.242-2.245 3.628-5.344 3.628-8.767s-1.386-6.522-3.628-8.767l-37.549-37.549c-2.199-2.368-5.298-3.874-8.75-3.97zM1964.3 348.789c-3.425 0.003-6.524 1.393-8.767 3.639l-49.955 49.955c-2.242 2.245-3.628 5.344-3.628 8.767s1.386 6.522 3.628 8.767l49.955 49.955c2.209 2.063 5.186 3.33 8.458 3.33 6.852 0 12.406-5.554 12.406-12.406 0-3.272-1.267-6.248-3.336-8.465l-41.347-41.346 41.354-41.354c2.242-2.245 3.628-5.344 3.628-8.767 0-6.848-5.548-12.4-12.395-12.406zM1907.976 312.356c-3.425 0.003-6.524 1.393-8.767 3.639l-86.388 86.388c-2.242 2.245-3.628 5.344-3.628 8.767s1.386 6.522 3.628 8.767l86.388 86.388c2.271 2.432 5.497 3.949 9.076 3.949 6.852 0 12.406-5.554 12.406-12.406 0-3.58-1.516-6.805-3.941-9.070l-77.628-77.628 77.621-77.621c2.242-2.245 3.628-5.344 3.628-8.767 0-6.848-5.548-12.4-12.395-12.406z" />
<glyph unicode="&#xe90a;" glyph-name="play" horiz-adv-x="957" d="M323.379 860.614c-40.422 28.801-74.377 11.419-74.377-38.603v-775.604c0-50.528 33.45-67.404 74.377-38.603l531.959 374.008c40.422 28.801 40.422 75.893 0 104.593l-192.006 134.708-148.754 104.795z" />
<glyph unicode="&#xe90b;" glyph-name="menu-open" horiz-adv-x="1317" d="M0 950.857h1316.571v-146.286h-1316.571v146.286zM0 73.143h1316.571v-146.286h-1316.571v146.286zM0 512h1316.571v-146.286h-1316.571v146.286z" />
<glyph unicode="&#xe90c;" glyph-name="menu-close" horiz-adv-x="1176" d="M0.060 46.371l1075.69 904.532 100.504-119.521-1075.69-904.532-100.504 119.521zM0.149 831.277l100.504 119.521 1075.69-904.532-100.504-119.521-1075.69 904.532z" />
<glyph unicode="&#xe90d;" glyph-name="angle-right" horiz-adv-x="347" d="M340 402.286c0-4.571-2.286-9.714-5.714-13.143l-266.286-266.286c-3.429-3.429-8.571-5.714-13.143-5.714s-9.714 2.286-13.143 5.714l-28.571 28.571c-3.429 3.429-5.714 8-5.714 13.143 0 4.571 2.286 9.714 5.714 13.143l224.571 224.571-224.571 224.571c-3.429 3.429-5.714 8.571-5.714 13.143s2.286 9.714 5.714 13.143l28.571 28.571c3.429 3.429 8.571 5.714 13.143 5.714s9.714-2.286 13.143-5.714l266.286-266.286c3.429-3.429 5.714-8.571 5.714-13.143z" />
<glyph unicode="&#xe90e;" glyph-name="angle-left" horiz-adv-x="384" d="M358.286 640c0-4.571-2.286-9.714-5.714-13.143l-224.571-224.571 224.571-224.571c3.429-3.429 5.714-8.571 5.714-13.143s-2.286-9.714-5.714-13.143l-28.571-28.571c-3.429-3.429-8.571-5.714-13.143-5.714s-9.714 2.286-13.143 5.714l-266.286 266.286c-3.429 3.429-5.714 8.571-5.714 13.143s2.286 9.714 5.714 13.143l266.286 266.286c3.429 3.429 8.571 5.714 13.143 5.714s9.714-2.286 13.143-5.714l28.571-28.571c3.429-3.429 5.714-8 5.714-13.143z" />
<glyph unicode="&#xe90f;" glyph-name="cancel" d="M726 272.667l-154 154 154 154-60 60-154-154-154 154-60-60 154-154-154-154 60-60 154 154 154-154zM512 852.667c236 0 426-190 426-426s-190-426-426-426-426 190-426 426 190 426 426 426z" />
<glyph unicode="&#xe910;" glyph-name="zoom-in" d="M926.133 72.8l-156.8 156.8c52.533 65.6 84 149.067 84 239.467 0 211.733-172.267 384-384 384-211.733 0.267-384-172-384-383.733s172.267-384 384-384c90.4 0 173.867 31.467 239.467 84l156.8-156.8c8.267-8.267 19.2-12.533 30.133-12.533s21.867 4.267 30.133 12.533c17.067 16.533 17.067 43.733 0.267 60.267zM170.667 469.334c0 164.8 133.867 298.667 298.667 298.667s298.667-133.867 298.667-298.667c0-80.8-32.267-154.133-84.533-208-1.067-1.067-2.4-1.867-3.467-2.933s-2.133-2.133-2.933-3.467c-53.867-52.267-127.2-84.533-208-84.533-164.533 0.267-298.4 134.133-298.4 298.933zM597.333 512h-85.333v85.333c0 23.467-19.2 42.667-42.667 42.667s-42.667-19.2-42.667-42.667v-85.333h-85.333c-23.467 0-42.667-19.2-42.667-42.667s19.2-42.667 42.667-42.667h85.333v-85.333c0-23.467 19.2-42.667 42.667-42.667s42.667 19.2 42.667 42.667v85.333h85.333c23.467 0 42.667 19.2 42.667 42.667s-19.2 42.667-42.667 42.667z" />
<glyph unicode="&#xe911;" glyph-name="alert-circle" d="M512 931.894c-272.297 0-493.037-220.74-493.037-493.037s220.74-493.037 493.037-493.037c272.297 0 493.037 220.74 493.037 493.037v0c0 272.297-220.74 493.037-493.037 493.037v0zM512 107.005c-43.567 0-78.886 35.318-78.886 78.886s35.318 78.886 78.886 78.886c43.567 0 78.886-35.318 78.886-78.886v0c-0.215-43.614-35.62-78.887-79.264-78.887-0.134 0-0.267 0-0.401 0.001h0.021zM581.025 306.116h-128.569l-25.79 455.111h180.148z" />
<glyph unicode="&#xe912;" glyph-name="minus" horiz-adv-x="805" d="M804.571 530.286v-109.714c0-30.286-24.571-54.857-54.857-54.857h-694.857c-30.286 0-54.857 24.571-54.857 54.857v109.714c0 30.286 24.571 54.857 54.857 54.857h694.857c30.286 0 54.857-24.571 54.857-54.857z" />
<glyph unicode="&#xe913;" glyph-name="check-circle" d="M512 931.894c-272.297 0-493.037-220.74-493.037-493.037s220.74-493.037 493.037-493.037c272.297 0 493.037 220.74 493.037 493.037v0c0 272.297-220.74 493.037-493.037 493.037v0zM784.687 583.355l-365.227-365.227c-4.181-4.156-9.945-6.726-16.308-6.726s-12.127 2.569-16.309 6.727l0.001-0.001-147.532 147.153c-4.156 4.181-6.726 9.945-6.726 16.308s2.569 12.127 6.727 16.309l43.614 43.614c4.181 4.156 9.945 6.726 16.308 6.726s12.127-2.569 16.309-6.727l-0.001 0.001 71.301-70.921c4.181-4.156 9.945-6.726 16.308-6.726s12.127 2.569 16.309 6.727l288.995 288.995c4.181 4.156 9.945 6.726 16.308 6.726s12.127-2.569 16.309-6.727l43.614-43.614c4.156-4.181 6.726-9.945 6.726-16.308s-2.569-12.127-6.727-16.309l0.001 0.001z" />
<glyph unicode="&#xe914;" glyph-name="info-circle" d="M512 931.894c-272.297 0-493.037-220.74-493.037-493.037s220.74-493.037 493.037-493.037c272.297 0 493.037 220.74 493.037 493.037v0c0 272.297-220.74 493.037-493.037 493.037v0zM512 107.005c-43.567 0-78.886 35.318-78.886 78.886s35.318 78.886 78.886 78.886c43.567 0 78.886-35.318 78.886-78.886v0c-0.215-43.614-35.62-78.887-79.264-78.887-0.134 0-0.267 0-0.401 0.001h0.021zM676.599 502.193c-8.545-11.15-17.24-21.048-26.544-30.337l-0.004-0.004-6.827-6.447c-5.592-5.188-10.791-10.508-15.722-16.071l-0.206-0.237c-8.802-7.534-16.739-15.47-24.027-23.979l-0.246-0.294c-5.718-5.45-11.048-11.141-16.044-17.121l-0.264-0.325c-8.654-12.158-13.835-27.311-13.835-43.674 0-1.847 0.066-3.679 0.196-5.494l-0.014 0.243v-52.338h-120.225v65.233c-0.196 2.604-0.308 5.639-0.308 8.701 0 17.7 3.742 34.527 10.479 49.731l-0.31-0.784c10.652 19.021 23.252 35.367 37.882 49.64l0.044 0.043 64.095 64.095c11.077 12.301 17.852 28.666 17.852 46.614 0 0.679-0.010 1.356-0.029 2.030l0.002-0.099c0.004 0.283 0.007 0.617 0.007 0.951 0 18.093-7.24 34.495-18.98 46.467l0.010-0.011c-12.46 11.747-29.3 18.967-47.827 18.967-0.253 0-0.505-0.001-0.757-0.004h0.039c-1.21 0.077-2.624 0.121-4.049 0.121-17.959 0-34.288-6.973-46.43-18.359l0.037 0.034c-13.132-12.4-21.642-29.572-22.747-48.73l-0.009-0.195v-8.723h-126.293v10.24c4.061 52.612 28.687 98.787 65.757 131.024l0.235 0.2c35.265 29.589 81.145 47.562 131.223 47.562 2.801 0 5.589-0.056 8.363-0.168l-0.398 0.013c1.715 0.053 3.732 0.084 5.757 0.084 49.188 0 94.179-17.973 128.762-47.711l-0.261 0.219c33.234-29.336 54.086-72.036 54.086-119.605 0-3.020-0.084-6.020-0.25-8.998l0.018 0.413c-1.21-35.204-13.423-67.337-33.284-93.311l0.288 0.392z" />
<glyph unicode="&#xe915;" glyph-name="delete-circle" d="M512 931.894c-272.297 0-493.037-220.74-493.037-493.037s220.74-493.037 493.037-493.037c272.297 0 493.037 220.74 493.037 493.037v0c0 272.297-220.74 493.037-493.037 493.037v0zM656.877 192.338l-144.877 144.877-144.877-144.877-82.679 82.679 144.877 144.877-144.877 144.877 82.679 82.679 144.877-144.877 144.877 144.877 82.679-82.679-144.877-144.877 144.877-144.877z" />
<glyph unicode="&#xe916;" glyph-name="angle-double-left" horiz-adv-x="603" d="M358.286 164.571c0-4.571-2.286-9.714-5.714-13.143l-28.571-28.571c-3.429-3.429-8.571-5.714-13.143-5.714s-9.714 2.286-13.143 5.714l-266.286 266.286c-3.429 3.429-5.714 8.571-5.714 13.143s2.286 9.714 5.714 13.143l266.286 266.286c3.429 3.429 8.571 5.714 13.143 5.714s9.714-2.286 13.143-5.714l28.571-28.571c3.429-3.429 5.714-8.571 5.714-13.143s-2.286-9.714-5.714-13.143l-224.571-224.571 224.571-224.571c3.429-3.429 5.714-8.571 5.714-13.143zM577.714 164.571c0-4.571-2.286-9.714-5.714-13.143l-28.571-28.571c-3.429-3.429-8.571-5.714-13.143-5.714s-9.714 2.286-13.143 5.714l-266.286 266.286c-3.429 3.429-5.714 8.571-5.714 13.143s2.286 9.714 5.714 13.143l266.286 266.286c3.429 3.429 8.571 5.714 13.143 5.714s9.714-2.286 13.143-5.714l28.571-28.571c3.429-3.429 5.714-8.571 5.714-13.143s-2.286-9.714-5.714-13.143l-224.571-224.571 224.571-224.571c3.429-3.429 5.714-8.571 5.714-13.143z" />
<glyph unicode="&#xe971;" glyph-name="user" d="M576 244.245v52.78c70.498 39.728 128 138.772 128 237.832 0 159.058 0 288-192 288s-192-128.942-192-288c0-99.060 57.502-198.104 128-237.832v-52.78c-217.102-17.748-384-124.42-384-253.388h896c0 128.968-166.898 235.64-384 253.388z" />
<glyph unicode="&#xea8b;" glyph-name="google-plus" d="M325.8 493.457v-111.8h184.8c-7.4-48-55.8-140.6-184.8-140.6-111.2 0-202 92.2-202 205.8s90.8 205.8 202 205.8c63.4 0 105.6-27 129.8-50.2l88.4 85.2c-56.8 53-130.4 85.2-218.2 85.2-180.2-0.2-325.8-145.8-325.8-326s145.6-325.8 325.8-325.8c188 0 312.8 132.2 312.8 318.4 0 21.4-2.4 37.8-5.2 54h-307.6zM1024 502.857h-96v96h-96v-96h-96v-96h96v-96h96v96h96z" />
<glyph unicode="&#xea90;" glyph-name="facebook" d="M608 758.857h160v192h-160c-123.514 0-224-100.486-224-224v-96h-128v-192h128v-512h192v512h160l32 192h-192v96c0 17.346 14.654 32 32 32z" />
<glyph unicode="&#xea92;" glyph-name="instagram" d="M512 858.657c136.8 0 153-0.6 206.8-3 50-2.2 77-10.6 95-17.6 23.8-9.2 41-20.4 58.8-38.2 18-18 29-35 38.4-58.8 7-18 15.4-45.2 17.6-95 2.4-54 3-70.2 3-206.8s-0.6-153-3-206.8c-2.2-50-10.6-77-17.6-95-9.2-23.8-20.4-41-38.2-58.8-18-18-35-29-58.8-38.4-18-7-45.2-15.4-95-17.6-54-2.4-70.2-3-206.8-3s-153 0.6-206.8 3c-50 2.2-77 10.6-95 17.6-23.8 9.2-41 20.4-58.8 38.2-18 18-29 35-38.4 58.8-7 18-15.4 45.2-17.6 95-2.4 54-3 70.2-3 206.8s0.6 153 3 206.8c2.2 50 10.6 77 17.6 95 9.2 23.8 20.4 41 38.2 58.8 18 18 35 29 58.8 38.4 18 7 45.2 15.4 95 17.6 53.8 2.4 70 3 206.8 3zM512 950.857c-139 0-156.4-0.6-211-3-54.4-2.4-91.8-11.2-124.2-23.8-33.8-13.2-62.4-30.6-90.8-59.2-28.6-28.4-46-57-59.2-90.6-12.6-32.6-21.4-69.8-23.8-124.2-2.4-54.8-3-72.2-3-211.2s0.6-156.4 3-211c2.4-54.4 11.2-91.8 23.8-124.2 13.2-33.8 30.6-62.4 59.2-90.8 28.4-28.4 57-46 90.6-59 32.6-12.6 69.8-21.4 124.2-23.8 54.6-2.4 72-3 211-3s156.4 0.6 211 3c54.4 2.4 91.8 11.2 124.2 23.8 33.6 13 62.2 30.6 90.6 59s46 57 59 90.6c12.6 32.6 21.4 69.8 23.8 124.2 2.4 54.6 3 72 3 211s-0.6 156.4-3 211c-2.4 54.4-11.2 91.8-23.8 124.2-12.6 34-30 62.6-58.6 91-28.4 28.4-57 46-90.6 59-32.6 12.6-69.8 21.4-124.2 23.8-54.8 2.6-72.2 3.2-211.2 3.2v0zM512 701.857c-145.2 0-263-117.8-263-263s117.8-263 263-263 263 117.8 263 263c0 145.2-117.8 263-263 263zM512 268.257c-94.2 0-170.6 76.4-170.6 170.6s76.4 170.6 170.6 170.6c94.2 0 170.6-76.4 170.6-170.6s-76.4-170.6-170.6-170.6zM846.8 712.257c0-33.91-27.49-61.4-61.4-61.4s-61.4 27.49-61.4 61.4c0 33.91 27.49 61.4 61.4 61.4s61.4-27.49 61.4-61.4z" />
<glyph unicode="&#xea96;" glyph-name="twitter" d="M1024 724.457c-37.6-16.8-78.2-28-120.6-33 43.4 26 76.6 67.2 92.4 116.2-40.6-24-85.6-41.6-133.4-51-38.4 40.8-93 66.2-153.4 66.2-116 0-210-94-210-210 0-16.4 1.8-32.4 5.4-47.8-174.6 8.8-329.4 92.4-433 219.6-18-31-28.4-67.2-28.4-105.6 0-72.8 37-137.2 93.4-174.8-34.4 1-66.8 10.6-95.2 26.2 0-0.8 0-1.8 0-2.6 0-101.8 72.4-186.8 168.6-206-17.6-4.8-36.2-7.4-55.4-7.4-13.6 0-26.6 1.4-39.6 3.8 26.8-83.4 104.4-144.2 196.2-146-72-56.4-162.4-90-261-90-17 0-33.6 1-50.2 3 93.2-59.8 203.6-94.4 322.2-94.4 386.4 0 597.8 320.2 597.8 597.8 0 9.2-0.2 18.2-0.6 27.2 41 29.4 76.6 66.4 104.8 108.6z" />
<glyph unicode="&#xeaa0;" glyph-name="vimeo" d="M1023.6 676.857c-4.6-99.6-74.2-236.2-208.8-409.4-139.2-180.8-257-271.4-353.4-271.4-59.6 0-110.2 55-151.4 165.2-27.6 101-55 202-82.6 303-30.6 110.2-63.4 165.2-98.6 165.2-7.6 0-34.4-16.2-80.4-48.2l-48.2 62c50.6 44.4 100.4 88.8 149.4 133.2 67.4 58.2 118 88.8 151.8 92 79.6 7.6 128.8-46.8 147.2-163.4 19.8-125.8 33.6-204 41.4-234.6 23-104.4 48.2-156.6 75.8-156.6 21.4 0 53.6 33.8 96.6 101.6 42.8 67.6 65.8 119.2 69 154.6 6.2 58.4-16.8 87.8-69 87.8-24.6 0-49.8-5.6-75.8-16.8 50.4 164.8 146.4 244.8 288.4 240.2 105-2.8 154.6-71 148.6-204.4z" />
<glyph unicode="&#xeaca;" glyph-name="linkedin" d="M384 566.857h177.106v-90.782h2.532c24.64 44.194 84.958 90.782 174.842 90.782 186.946 0 221.52-116.376 221.52-267.734v-308.266h-184.61v273.278c0 65.184-1.334 149.026-96.028 149.026-96.148 0-110.82-70.986-110.82-144.292v-278.012h-184.542v576zM64 566.857h192v-576h-192v576zM256 726.857c0-53.019-42.981-96-96-96s-96 42.981-96 96c0 53.019 42.981 96 96 96s96-42.981 96-96z" />
<glyph unicode="&#xf041;" glyph-name="map-marker" horiz-adv-x="585" d="M438.857 585.143c0 80.571-65.714 146.286-146.286 146.286s-146.286-65.714-146.286-146.286 65.714-146.286 146.286-146.286 146.286 65.714 146.286 146.286zM585.143 585.143c0-34.857-4-70.857-18.857-102.286l-208-442.286c-12-25.143-38.286-40.571-65.714-40.571s-53.714 15.429-65.143 40.571l-208.571 442.286c-14.857 31.429-18.857 67.429-18.857 102.286 0 161.714 130.857 292.571 292.571 292.571s292.571-130.857 292.571-292.571z" />
<glyph unicode="&#xf067;" glyph-name="plus" horiz-adv-x="805" d="M804.571 530.286v-109.714c0-30.286-24.571-54.857-54.857-54.857h-237.714v-237.714c0-30.286-24.571-54.857-54.857-54.857h-109.714c-30.286 0-54.857 24.571-54.857 54.857v237.714h-237.714c-30.286 0-54.857 24.571-54.857 54.857v109.714c0 30.286 24.571 54.857 54.857 54.857h237.714v237.714c0 30.286 24.571 54.857 54.857 54.857h109.714c30.286 0 54.857-24.571 54.857-54.857v-237.714h237.714c30.286 0 54.857-24.571 54.857-54.857z" />
<glyph unicode="&#xf095;" glyph-name="phone" horiz-adv-x="805" d="M804.571 242.286c0-20.571-9.143-60.571-17.714-79.429-12-28-44-46.286-69.714-60.571-33.714-18.286-68-29.143-106.286-29.143-53.143 0-101.143 21.714-149.714 39.429-34.857 12.571-68.571 28-100 47.429-97.143 60-214.286 177.143-274.286 274.286-19.429 31.429-34.857 65.143-47.429 100-17.714 48.571-39.429 96.571-39.429 149.714 0 38.286 10.857 72.571 29.143 106.286 14.286 25.714 32.571 57.714 60.571 69.714 18.857 8.571 58.857 17.714 79.429 17.714 4 0 8 0 12-1.714 12-4 24.571-32 30.286-43.429 18.286-32.571 36-65.714 54.857-97.714 9.143-14.857 26.286-33.143 26.286-50.857 0-34.857-103.429-85.714-103.429-116.571 0-15.429 14.286-35.429 22.286-49.143 57.714-104 129.714-176 233.714-233.714 13.714-8 33.714-22.286 49.143-22.286 30.857 0 81.714 103.429 116.571 103.429 17.714 0 36-17.143 50.857-26.286 32-18.857 65.143-36.571 97.714-54.857 11.429-5.714 39.429-18.286 43.429-30.286 1.714-4 1.714-8 1.714-12z" />
<glyph unicode="&#xf0c1;" glyph-name="chain, link" horiz-adv-x="951" d="M832 256c0 14.857-5.714 28.571-16 38.857l-118.857 118.857c-10.286 10.286-24.571 16-38.857 16-16.571 0-29.714-6.286-41.143-18.286 18.857-18.857 41.143-34.857 41.143-64 0-30.286-24.571-54.857-54.857-54.857-29.143 0-45.143 22.286-64 41.143-12-11.429-18.857-24.571-18.857-41.714 0-14.286 5.714-28.571 16-38.857l117.714-118.286c10.286-10.286 24.571-15.429 38.857-15.429s28.571 5.143 38.857 14.857l84 83.429c10.286 10.286 16 24 16 38.286zM430.286 658.857c0 14.286-5.714 28.571-16 38.857l-117.714 118.286c-10.286 10.286-24.571 16-38.857 16s-28.571-5.714-38.857-15.429l-84-83.429c-10.286-10.286-16-24-16-38.286 0-14.857 5.714-28.571 16-38.857l118.857-118.857c10.286-10.286 24.571-15.429 38.857-15.429 16.571 0 29.714 5.714 41.143 17.714-18.857 18.857-41.143 34.857-41.143 64 0 30.286 24.571 54.857 54.857 54.857 29.143 0 45.143-22.286 64-41.143 12 11.429 18.857 24.571 18.857 41.714zM941.714 256c0-43.429-17.714-85.714-48.571-116l-84-83.429c-30.857-30.857-72.571-47.429-116-47.429-44 0-85.714 17.143-116.571 48.571l-117.714 118.286c-30.857 30.857-47.429 72.571-47.429 116 0 45.143 18.286 88 50.286 119.429l-50.286 50.286c-31.429-32-73.714-50.286-118.857-50.286-43.429 0-85.714 17.143-116.571 48l-118.857 118.857c-31.429 31.429-48 72.571-48 116.571 0 43.429 17.714 85.714 48.571 116l84 83.429c30.857 30.857 72.571 47.429 116 47.429 44 0 85.714-17.143 116.571-48.571l117.714-118.286c30.857-30.857 47.429-72.571 47.429-116 0-45.143-18.286-88-50.286-119.429l50.286-50.286c31.429 32 73.714 50.286 118.857 50.286 43.429 0 85.714-17.143 116.571-48l118.857-118.857c31.429-31.429 48-72.571 48-116.571z" />
<glyph unicode="&#xf0e0;" glyph-name="envelope" d="M1024 545.143v-453.714c0-50.286-41.143-91.429-91.429-91.429h-841.143c-50.286 0-91.429 41.143-91.429 91.429v453.714c17.143-18.857 36.571-35.429 57.714-49.714 94.857-64.571 190.857-129.143 284-197.143 48-35.429 107.429-78.857 169.714-78.857h1.143c62.286 0 121.714 43.429 169.714 78.857 93.143 67.429 189.143 132.571 284.571 197.143 20.571 14.286 40 30.857 57.143 49.714zM1024 713.143c0-64-47.429-121.714-97.714-156.571-89.143-61.714-178.857-123.429-267.429-185.714-37.143-25.714-100-78.286-146.286-78.286h-1.143c-46.286 0-109.143 52.571-146.286 78.286-88.571 62.286-178.286 124-266.857 185.714-40.571 27.429-98.286 92-98.286 144 0 56 30.286 104 91.429 104h841.143c49.714 0 91.429-41.143 91.429-91.429z" />
<glyph unicode="&#xf101;" glyph-name="angle-double-right" horiz-adv-x="567" d="M340 402.286c0-4.571-2.286-9.714-5.714-13.143l-266.286-266.286c-3.429-3.429-8.571-5.714-13.143-5.714s-9.714 2.286-13.143 5.714l-28.571 28.571c-3.429 3.429-5.714 8.571-5.714 13.143s2.286 9.714 5.714 13.143l224.571 224.571-224.571 224.571c-3.429 3.429-5.714 8.571-5.714 13.143s2.286 9.714 5.714 13.143l28.571 28.571c3.429 3.429 8.571 5.714 13.143 5.714s9.714-2.286 13.143-5.714l266.286-266.286c3.429-3.429 5.714-8.571 5.714-13.143zM559.429 402.286c0-4.571-2.286-9.714-5.714-13.143l-266.286-266.286c-3.429-3.429-8.571-5.714-13.143-5.714s-9.714 2.286-13.143 5.714l-28.571 28.571c-3.429 3.429-5.714 8.571-5.714 13.143s2.286 9.714 5.714 13.143l224.571 224.571-224.571 224.571c-3.429 3.429-5.714 8.571-5.714 13.143s2.286 9.714 5.714 13.143l28.571 28.571c3.429 3.429 8.571 5.714 13.143 5.714s9.714-2.286 13.143-5.714l266.286-266.286c3.429-3.429 5.714-8.571 5.714-13.143z" />
<glyph unicode="&#xf106;" glyph-name="angle-up" horiz-adv-x="658" d="M614.286 274.286c0-4.571-2.286-9.714-5.714-13.143l-28.571-28.571c-3.429-3.429-8-5.714-13.143-5.714-4.571 0-9.714 2.286-13.143 5.714l-224.571 224.571-224.571-224.571c-3.429-3.429-8.571-5.714-13.143-5.714s-9.714 2.286-13.143 5.714l-28.571 28.571c-3.429 3.429-5.714 8.571-5.714 13.143s2.286 9.714 5.714 13.143l266.286 266.286c3.429 3.429 8.571 5.714 13.143 5.714s9.714-2.286 13.143-5.714l266.286-266.286c3.429-3.429 5.714-8.571 5.714-13.143z" />
<glyph unicode="&#xf107;" glyph-name="angle-down" horiz-adv-x="658" d="M614.286 530.286c0-4.571-2.286-9.714-5.714-13.143l-266.286-266.286c-3.429-3.429-8.571-5.714-13.143-5.714s-9.714 2.286-13.143 5.714l-266.286 266.286c-3.429 3.429-5.714 8.571-5.714 13.143s2.286 9.714 5.714 13.143l28.571 28.571c3.429 3.429 8 5.714 13.143 5.714 4.571 0 9.714-2.286 13.143-5.714l224.571-224.571 224.571 224.571c3.429 3.429 8.571 5.714 13.143 5.714s9.714-2.286 13.143-5.714l28.571-28.571c3.429-3.429 5.714-8.571 5.714-13.143z" />
<glyph unicode="&#xf167;" glyph-name="youtube" horiz-adv-x="878" d="M554.857 240v-120.571c0-25.714-7.429-38.286-22.286-38.286-8.571 0-17.143 4-25.714 12.571v172c8.571 8.571 17.143 12.571 25.714 12.571 14.857 0 22.286-13.143 22.286-38.286zM748 239.428v-26.286h-51.429v26.286c0 25.714 8.571 38.857 25.714 38.857s25.714-13.143 25.714-38.857zM196 364h61.143v53.714h-178.286v-53.714h60v-325.143h57.143v325.143zM360.571 38.857h50.857v282.286h-50.857v-216c-11.429-16-22.286-24-32.571-24-6.857 0-10.857 4-12 12-0.571 1.714-0.571 8-0.571 20v208h-50.857v-223.429c0-20 1.714-33.143 4.571-41.714 4.571-14.286 16.571-21.143 33.143-21.143 18.286 0 37.714 11.429 58.286 34.857v-30.857zM605.714 123.428v112.571c0 26.286-1.143 45.143-5.143 56.571-6.286 21.143-20.571 32-40.571 32-18.857 0-36.571-10.286-53.143-30.857v124h-50.857v-378.857h50.857v27.429c17.143-21.143 34.857-31.429 53.143-31.429 20 0 34.286 10.857 40.571 31.429 4 12 5.143 30.857 5.143 57.143zM798.857 129.143v7.429h-52c0-20.571-0.571-32-1.143-34.857-2.857-13.714-10.286-20.571-22.857-20.571-17.714 0-26.286 13.143-26.286 39.429v49.714h102.286v58.857c0 30.286-5.143 52-15.429 66.286-14.857 19.429-34.857 29.143-60.571 29.143-26.286 0-46.286-9.714-61.143-29.143-10.857-14.286-16-36-16-66.286v-98.857c0-30.286 5.714-52.571 16.571-66.286 14.857-19.429 34.857-29.143 61.714-29.143s48 10.286 61.714 30.286c6.286 9.143 10.857 19.429 12 30.857 1.143 5.143 1.143 16.571 1.143 33.143zM451.429 650.857v120c0 26.286-7.429 39.429-24.571 39.429-16.571 0-24.571-13.143-24.571-39.429v-120c0-26.286 8-40 24.571-40 17.143 0 24.571 13.714 24.571 40zM862.286 221.714c0-65.714-0.571-136-14.857-200-10.857-45.143-47.429-78.286-91.429-82.857-105.143-12-211.429-12-317.143-12s-212 0-317.143 12c-44 4.571-81.143 37.714-91.429 82.857-14.857 64-14.857 134.286-14.857 200v0c0 66.286 0.571 136 14.857 200 10.857 45.143 47.429 78.286 92 83.429 104.571 11.429 210.857 11.429 316.571 11.429s212 0 317.143-11.429c44-5.143 81.143-38.286 91.429-83.429 14.857-64 14.857-133.714 14.857-200zM292 950.857h58.286l-69.143-228v-154.857h-57.143v154.857c-5.143 28-16.571 68-34.857 121.143-12.571 35.429-25.143 71.429-37.143 106.857h60.571l40.571-150.286zM503.429 760.571v-100c0-30.286-5.143-53.143-16-67.429-14.286-19.429-34.286-29.143-60.571-29.143-25.714 0-45.714 9.714-60 29.143-10.857 14.857-16 37.143-16 67.429v100c0 30.286 5.143 52.571 16 66.857 14.286 19.429 34.286 29.143 60 29.143 26.286 0 46.286-9.714 60.571-29.143 10.857-14.286 16-36.571 16-66.857zM694.857 853.143v-285.143h-52v31.429c-20.571-24-40-35.429-58.857-35.429-16.571 0-28.571 6.857-33.714 21.143-2.857 8.571-4.571 22.286-4.571 42.857v225.143h52v-209.714c0-12 0-18.857 0.571-20 1.143-8 5.143-12.571 12-12.571 10.286 0 21.143 8 32.571 24.571v217.714h52z" />
</font>
</defs>
</svg>
