<svg xmlns="http://www.w3.org/2000/svg" viewBox="0 0 198 62.46" fill="#3f454f"><title>Cordoba Guitars Logo</title><g id="Layer_2" data-name="Layer 2"><g id="Layer_1-2" data-name="Layer 1"><path class="cls-1" d="M37.36,60.42a72.41,72.41,0,0,1-16.51,2C7.13,62.46,0,55.28,0,41.65,0,26.1,5.89,18.17,22.15,18.17A73.93,73.93,0,0,1,37.36,20V30.62H33c-1.18-7.75-2-9.79-10.8-9.79-11.23,0-12.23,12.32-12.23,20.81,0,8.67,2.29,18.21,12.72,18.21,7.76,0,9.74-3.53,10.05-10.66h4.65Z"/><path class="cls-1" d="M48.07,49.69c0,3.33-.6,10.71,4.51,10.71S57.1,53,57.1,49.69,57.69,40,52.58,40s-4.51,6.4-4.51,9.66m16.22,1c0,8.43-3.77,11.6-11.71,11.6s-11.75-3.17-11.75-11.6C40.83,42,43.9,38,52.58,38S64.29,42,64.29,50.73"/><path class="cls-1" d="M77,41.37C78.45,39.43,80.2,38,82.73,38c2.84,0,4.73,1.49,4.73,4.42,0,2.08-.1,2.92-2.49,2.92-1.34,0-2.54-.14-2.59-1.79,0-1.24-.39-2.38-1.89-2.38-2.64,0-3.23,3.07-3.23,6v8.63c0,3.42-.5,4.16,4.08,4.16V62c-2.83-.05-5.12-.05-7.41-.1s-4.58.05-6.82.1V60c4,0,3.49-1.14,3.49-4.16V44.43c0-3,.55-4.16-3.49-4.16V38.44c2.19.05,4.38.05,6.57.1,1.09,0,2.24,0,3.34-.1Z"/><path class="cls-1" d="M126.48,49.69c0,3.33-.6,10.71,4.51,10.71s4.51-7.38,4.51-10.71S136.1,40,131,40s-4.51,6.4-4.51,9.66m16.22,1c0,8.43-3.77,11.6-11.71,11.6s-11.76-3.17-11.76-11.6C119.24,42,122.31,38,131,38S142.7,42,142.7,50.73"/><path class="cls-1" d="M158.62,40.46c-4.46,0-4.31,5.52-4.31,9.4,0,2.86-.94,10.2,3.91,10.2,4.55,0,4.55-5.76,4.55-10,0-4.68-.2-9.65-4.16-9.65m-4.36-15.32V40.51a10.1,10.1,0,0,1,6.49-2.31c7.33,0,9.35,5.37,9.35,12s-2.28,12.17-9.8,12.17a11.15,11.15,0,0,1-6.24-1.82l-5.15,1.82h-1.29V31.05c0-3,.54-4.09-3.52-4.09V25.14Z"/><path class="cls-1" d="M187.83,50.44h-1.89c-2.57,0-4.16.49-4.85,3.26-.4,2.48-.2,5.6,3,5.6,2.63,0,3.72-1.78,3.72-4.31Zm.25,9.17c-2.63,1.73-4.46,2.72-7.58,2.72-4.42,0-6.59-2.63-6.59-6.89,0-4,2.13-6.35,6.14-6.74a31.43,31.43,0,0,1,3.72-.2h4.06c0-3,1.19-8.42-3.22-8.42-1.93,0-3.22.74-3.38,3.92.1,1.09-.19,1.48-1,1.48h-3.48c-.6.1-1.09-.29-1-1.48-.39-4.46,4.42-6,8.83-6,7.19.4,9.87,1,9.87,7.63V55.88c0,3.92-.74,4.12,3.52,4.12v1.94c-1.64-.05-3.33-.05-5-.1s-3.32,0-5,.1Z"/><path class="cls-1" d="M112.83,21.08c.89-13.13,8.9-19.43,15.07-19.9C146.06-.21,144.78,29.63,112.83,21.08ZM106.17,54c0,2.84-1.27,5.83-4.54,5.83-4.36,0-4.4-5.34-4.4-8.48V48.71c0-3.43.24-8.14,4.65-8.14,3.27,0,4.3,3.43,4.3,6.07ZM143.78,7.55C143.08,4,140,1.9,136.85.94c-10-3.08-23.88,1.58-28.26,11.23a30.11,30.11,0,0,0-2,7.38c-3.76-1.16-36.48-10.73-46.91-10S45,16.21,45.07,20.93c.13,6.09,5.76,8.27,9.63,8.33a10.28,10.28,0,0,1-3.56,5.6h2.34A14.92,14.92,0,0,0,59,28c.28-.74-.9-.7-1.71-.4-2.67.9-6.73-1.28-7.5-7.14s4.92-9.4,9.75-9.91C69.31,9,95.22,19,99.42,20.17c2.5.86,4.76,1.56,6.86,2.14,0,.09,0,2,0,3h0s0,4.65,0,5.78V41c-1.66-2.11-4.65-2.65-6.85-2.65-7.58,0-9.44,6.32-9.44,12.84,0,6.82,2.84,11.18,9.88,11.18a8.49,8.49,0,0,0,6.7-3.14v2.75c1.62-.05,3.27-.05,4.89-.1s3.28,0,4.89.1V60c-4,0-3.52-1.13-3.52-4.08V25.32h0c0-.51,0-1.52,0-1.52C139.14,26.63,144.95,13.47,143.78,7.55Z"/></g></g></svg>
