<svg xmlns="http://www.w3.org/2000/svg" preserveAspectRatio="none" viewBox="0 0 600 7" fill="#292d33"><title>Mobile Bottom Brush Stroke Separator</title><path class="st0" d="M0,0l-0.1,6.4C31,6.2,36.3,3.2,78,3.6c-0.2,0-0.5,0-0.7-0.1c37.8-0.3,79.3-0.6,110.8-0.1 c-2.9-0.3,1.1-0.4-2.3-0.5c-5.1,0.2-20-0.2-22.5-0.2c12.6-0.1,38.3,0.3,51.9,0.4c-4.3,0.2-0.3,0.6,4.5,0.7 c1.2-0.1,13.1,0.1,18.1-0.1c4.3,0.4-10.2,0.4-2.3,0.6c2.4-0.4,6.9,0,13.6-0.2c3.7,0.3,9.6,0.5,13.6,0.8c1.7-0.3,17.6,0.5,13.9,0.1 c12.6,1,38.3,0.7,40.4,1.1l0,0c0.7-0.1,17.8-0.3,24.9-0.6c1.5,0.2,4.8,0.2,9,0.2c-3.6-0.3,5.9-0.5,6.8-0.2c-11.1,0,3.4,0.1,2.3,0.4 c-4,0.1-13.1,0-15.8,0.2c16.8,0.4,47.3,0,63.3,0.5c-5.8,0-7.9,0.2-11.3,0.4c21.6,0,34.5-0.5,52-0.1c2.9-0.1,19-0.6,13.6-0.1 c16.7-0.1-3.5-0.6,13.6-0.6c0.9,0.2-3.4,0.3,0,0.4c2.4-0.5,14.4-0.2,13.6,0c11.8-0.9,45.3-0.6,52-1.3c3,0.3,10.1-0.1,13.6-0.1 c0.1,0.2-1.1,0.3-2.2,0.4c11-0.1,20-0.8,27.1-0.7c1.4,0.6-17.8,0.8-13.6,1.2c10.2-0.5,19.6-1.1,31.7-1.5c2,0.4-9.7,0.6-4.5,0.7 c2.7-0.2,4.7-0.5,6.9-0.8V0H0z M131.6,3c7.4-0.4,24.2-0.4,29.4-0.2C154.9,3.2,140.8,2.7,131.6,3L131.6,3z M78,3.6c0.8,0,2.3,0,3.5,0 H78z M317,6.1L317,6.1z M626.5-3.9c0.1,0,0.2,0,0.4-0.1L626.5-3.9z"/></svg>
