<svg xmlns="http://www.w3.org/2000/svg" preserveAspectRatio="none" viewBox="0 0 1442 17" fill="#292d33"><title>Bottom Brush Stroke Separator</title><path class="st0" d="M0,0v15.7C74.7,15.2,87.7,8,188,9c-0.6,0-1.2,0-1.7-0.2C277.1,8.1,377,7.4,452.8,8.5c-7-0.7,2.8-0.9-5.5-1.1 c-12.3,0.5-48.2-0.6-54.1-0.6c30.4-0.2,92.1,0.8,124.9,0.9c-10.3,0.5-0.7,1.5,10.9,1.7c3-0.3,31.5,0.2,43.5-0.3 c10.3,1-24.6,0.9-5.4,1.4c5.8-0.9,16.5,0,32.6-0.6c9,0.8,23,1.2,32.6,2c4.1-0.8,42.3,1.1,33.3,0.3c30.2,2.4,92.1,1.8,97.2,2.8l0,0 c1.6-0.1,42.8-0.7,59.9-1.4c3.6,0.4,11.6,0.5,21.8,0.6c-8.6-0.8,14.1-1.3,16.3-0.6c-26.6,0.1,8.3,0.3,5.4,0.8 c-9.7,0.3-31.6,0-38.1,0.6c40.4,0.9,113.8,0.1,152.3,1.1c-13.9,0-19,0.5-27.2,0.9c52.1,0,83.1-1.2,125.1-0.3 c7.1-0.3,45.7-1.5,32.6-0.3c40.2-0.2-8.5-1.5,32.6-1.4c2.1,0.5-8.1,0.7,0,0.9c5.7-1.3,34.6-0.5,32.6,0c28.3-2.2,109-1.5,125.1-3.1 c7.3,0.8,24.2-0.2,32.6-0.3c0.3,0.4-2.5,0.6-5.4,0.9c26.4-0.1,48.2-2,65.3-1.7c3.4,1.5-42.9,1.9-32.6,2.8 c24.4-1.3,47.1-2.6,76.2-3.7c4.8,0.8-23.2,1.4-10.9,1.7c6.4-0.6,10.2-1,15.6-1.7V0C1442,0,0,0,0,0z M316.8,7.4 c17.7-0.9,58.1-0.9,70.7-0.6C373,7.9,338.9,6.8,316.8,7.4z M188,9c2,0.1,5.5,0.1,8.3,0.1L188,9z M762.8,15L762.8,15z M1507.2-9.1 c0.3,0,0.6,0,0.9-0.1L1507.2-9.1z"/></svg>
