<svg xmlns="http://www.w3.org/2000/svg" preserveAspectRatio="none" viewBox="0 0 600.2 6.98" fill="#292d33"><title>Mobile Top Brush Stroke Separator</title><g id="Layer_2" data-name="Layer 2"><g id="Layer_1-2" data-name="Layer 1"><path class="cls-1" d="M.09,1.73a5.92,5.92,0,0,1,0,1.21q-.17,1.16,0,.15v1a14.61,14.61,0,0,1,0,1.48A2.66,2.66,0,0,1,0,6.36V7H600.2a42,42,0,0,1-.12-4.25c-6.46-.3-13.07-.35-20.1-.58-8.2-.28-20.94-.43-24.69-.36-3.33-.17-4.93-.48-7.4-.71-3.56,0-.86.53-4.94.53-3.31-.12-4.59-.38-4.94-.71-8.63.39-31.47-1-29.62,0-6.19.24-6-.83-9.87-.18-5.57-.1,3-.28-2.48-.54-15.62,0-36.64.71-56.78-.18-10.73.74-24.36.2-44.43.53,13.21.58-10.44,0-7.4.89-5.69-.42-18.37-.3-22.22.36-4.63-.58-3.39-.66-14.82-.9-.32.54-5.59.07-14.81.36-.7.29,2.34.31,2.47.53-5.79-.05-9.27-.28-17.28-.18,9.71.29,18.45,1.18,27.16.53-5.5,1.19-19.28-.15-22.22.54-1.93-.16.94-.79-9.87-.71a37.62,37.62,0,0,0,4.94.18c-.59.31-4.24.41-9.87.36-3.76-.38-10.53-.55-14.82-.9-2.88.41,3.12,1.15,17.29,1.07.09.26-14.67.26-2.48.36-2.27.49-7.72-.25-14.82,0,1.06,1.2-24.66,1-32.09,1.07.32.81-18,1-24.68.71,6-.93,16.08-1.33,7.4-2.32,8.44-.13,3.15.73,12.35.53,5.56-.38-2-.61,0-1.25-2.21.14-5.57.19-9.87.18,13.87.68-14.24-.2-4.94.71-9.78-.06,2.76-.62-7.4-.53-9.46,0-.9.14-2.47.53-2.89-.5-11.56-.59-19.75-.71,3.7.21,6,.52,12.34.53-7,.17-16.81-.21-22.21-.18-7.18.16-2.78.27-2.48.71-.57-.49-12.17-.19-14.8-.53-12.47.31-11.37.91-22.22.71,3.17.23,3.17.66,0,.9-7.37-.84-6.94,1.19-9.87,1.78-19.91-.8-23.45.56-44.44.18,6.53.71-7.66,0-9.87.36C82.35,5.73,53.36,4.51,36.9,2.68c-4.38.13-.35.32,0,.53-5.21-.16-7.29-.54-14.81-.53a71.76,71.76,0,0,1,7.41-.18c-9.24-.77-17.17-.77-27.16-1.25C3.61,1.51,6,1.7,7.26,2,3.81,1.73,2.09,1.73.09,1.73Zm217,3.44c3-.37,14.86-.11,17.28-.53a37.6,37.6,0,0,1-4.93-.18h7.4C239.81,5.61,212.87,5.24,217.09,5.17Z"/></g></g></svg>
