<svg xmlns="http://www.w3.org/2000/svg" preserveAspectRatio="none" viewBox="0 0 1442.06 17" fill="#292d33"><title>Top Brush Stroke Separator</title><g id="Layer_2" data-name="Layer 2"><g id="Layer_1-2" data-name="Layer 1"><path class="cls-1" d="M.06,3C-.08,9.6.06,13,0,17H1442.06V6c-5.72-.22-11.31-.61-17.17-.81-19.91-.68-50.81-1-59.9-.87-8.07-.42-12-1.16-18-1.73-8.64.1-2.09,1.29-12,1.3-8-.29-11.14-.92-12-1.73-20.95.94-76.35-2.37-71.86,0-15,.57-14.57-2-24-.43-13.51-.25,7.27-.68-6-1.3-37.9.12-88.9,1.72-137.76-.43-26,1.81-59.11.48-107.8,1.3,32,1.41-25.32.1-18,2.16-13.81-1-44.57-.72-53.9.87-11.23-1.41-8.23-1.61-36-2.17-.77,1.31-13.56.18-35.93.87-1.7.7,5.67.75,6,1.3-14.06-.13-22.49-.68-41.92-.43,23.56.69,44.77,2.87,65.89,1.3C848.43,8.1,815,4.83,807.84,6.5c-4.67-.38,2.29-1.92-24-1.73.18.42,7.34.33,12,.43-1.43.76-10.3,1-24,.87-9.11-.93-25.54-1.33-36-2.17-7,1,7.57,2.78,42,2.6.21.64-35.59.63-6,.86-5.5,1.18-18.72-.6-36,0,2.57,2.91-59.83,2.5-77.85,2.6.77,2-43.77,2.35-59.89,1.72,14.53-2.26,39-3.23,18-5.62,20.48-.32,7.63,1.76,30,1.3,13.48-.93-5-1.47,0-3-5.35.34-13.52.47-24,.43,33.66,1.65-34.55-.48-12,1.73-23.73-.14,6.69-1.5-18-1.3-23-.08-2.17.35-6,1.3-7-1.22-28-1.43-47.91-1.73,9.14.46,14.77,1.21,30.1,1.21-16.92.41-40.78-.52-53.89-.43-17.42.38-6.74.65-6,1.73C507.06,6.14,479,6.87,472.58,6c-30.26.75-27.59,2.22-53.91,1.73,7.69.57,7.69,1.6,0,2.17-17.89-2-16.84,2.89-24,4.32-48.31-1.93-56.89,1.35-107.82.43,15.83,1.73-18.58,0-24,.87-45.47-1.72-115.81-4.64-155.74-9.08-10.64.32-.86.78,0,1.3-12.6-.35-17.63-1.28-35.89-1.26,1-.51,10.92-.36,18-.43C66.83,4.15,47.6,4.25,23.36,3c3.11.64,8.88,1.09,12,1.73-13.92-1-16-.38-29.92-.87,0-.33-2.26-.55-5.12-.79C.26,3.19.06,2.58.06,3Zm544.39,9.54c7.36-.91,36-.27,41.92-1.3-4.62-.1-11.79,0-12-.43h18C599.55,13.6,534.19,12.71,544.45,12.54Z"/></g></g></svg>
